<?xml version="1.0" encoding="iso-8859-1"?>
<!-- Uploaded to: SVG Repo, www.svgrepo.com, Generator: SVG Repo Mixer Tools -->
<svg height="800px" width="800px" version="1.1" id="Layer_1" xmlns="http://www.w3.org/2000/svg" xmlns:xlink="http://www.w3.org/1999/xlink" 
	 viewBox="0 0 511.669 511.669" xml:space="preserve">
<g>
	<path style="fill:#666666;" d="M288.251,46.445v33.317c0,6.973-5.325,12.94-12.288,13.368
		c-98.62,6.032-176.826,84.21-182.858,182.831c-0.419,6.954-6.386,12.288-13.359,12.288H46.447
		C51.344,412.46,153.53,511.667,278.942,511.667c128.531,0,232.727-104.197,232.727-232.727
		C511.669,153.528,412.462,51.342,288.251,46.445"/>
	<g>
		<path style="fill:#B3B3B3;" d="M93.107,275.959c6.032-98.611,84.238-176.798,182.858-182.831
			c6.954-0.428,12.288-6.395,12.288-13.368V13.443c0-7.773-6.582-13.805-14.345-13.424C125.829,7.243,7.25,125.822,0.016,273.902
			c-0.372,7.764,5.651,14.345,13.433,14.345h66.29C86.712,288.247,92.679,282.922,93.107,275.959"/>
		<path style="fill:#B3B3B3;" d="M390.651,278.937c0,61.691-50.018,111.709-111.709,111.709s-111.709-50.018-111.709-111.709
			s50.018-111.709,111.709-111.709S390.651,217.246,390.651,278.937"/>
	</g>
	<g>
		<path style="fill:#666666;" d="M306.869,278.937c0,15.425-12.502,27.927-27.927,27.927s-27.927-12.502-27.927-27.927
			s12.502-27.927,27.927-27.927S306.869,263.512,306.869,278.937"/>
		<path style="fill:#666666;" d="M288.251,213.773c0,5.139-4.17,9.309-9.309,9.309s-9.309-4.17-9.309-9.309
			c0-5.139,4.17-9.309,9.309-9.309S288.251,208.635,288.251,213.773"/>
		<path style="fill:#666666;" d="M288.251,344.101c0,5.139-4.17,9.309-9.309,9.309s-9.309-4.17-9.309-9.309s4.17-9.309,9.309-9.309
			S288.251,338.962,288.251,344.101"/>
		<path style="fill:#666666;" d="M344.105,288.246c-5.139,0-9.309-4.17-9.309-9.309s4.17-9.309,9.309-9.309s9.309,4.17,9.309,9.309
			S349.244,288.246,344.105,288.246"/>
		<path style="fill:#666666;" d="M213.778,288.246c-5.139,0-9.309-4.17-9.309-9.309s4.17-9.309,9.309-9.309
			c5.139,0,9.309,4.17,9.309,9.309S218.917,288.246,213.778,288.246"/>
	</g>
</g>
</svg>