<?xml version="1.0" encoding="iso-8859-1"?>
<!-- Uploaded to: SVG Repo, www.svgrepo.com, Generator: SVG Repo Mixer Tools -->
<svg height="800px" width="800px" version="1.1" id="Layer_1" xmlns="http://www.w3.org/2000/svg" xmlns:xlink="http://www.w3.org/1999/xlink" 
	 viewBox="0 0 512 512" xml:space="preserve">
<g transform="translate(1 1)">
	<path style="fill:#FFDD09;" d="M255,451.267c-108.373,0-196.267-87.893-196.267-196.267S146.627,58.733,255,58.733
		S451.267,146.627,451.267,255S363.373,451.267,255,451.267 M255,7.533C118.467,7.533,7.533,118.467,7.533,255
		S118.467,502.467,255,502.467S502.467,391.533,502.467,255S391.533,7.533,255,7.533"/>
	<path style="fill:#FCC309;" d="M268.653,450.413c4.267,0,7.68-0.853,11.947-0.853l0,0v-77.653c3.413-0.853,6.827-1.707,11.093-2.56
		l39.253,67.413c4.267-1.707,7.68-3.413,11.093-5.12c0,0,0.853,0,0.853-0.853c3.413-1.707,6.827-3.413,10.24-5.12
		c0,0,0.853,0,0.853-0.853c6.827-4.267,14.507-8.533,20.48-13.653l0,0l-39.253-67.413c2.56-1.707,4.267-4.267,6.827-6.827
		l67.413,39.253l0,0c5.12-6.827,10.24-13.653,14.507-21.333l0,0c1.707-3.413,4.267-6.827,5.973-10.24
		c0-0.853,0.853-0.853,0.853-1.707c1.707-3.413,3.413-6.827,5.12-11.093l-67.413-39.253c0.853-3.413,2.56-7.68,3.413-11.947h77.653
		c0.853-4.267,0.853-7.68,0.853-11.947c0-0.853,0-0.853,0-1.707c0-4.267,0.853-8.533,0.853-12.8c0-4.267,0-8.533-0.853-12.8
		c0-0.853,0-0.853,0-1.707c0-4.267-0.853-7.68-0.853-11.947h-77.653c-0.853-3.413-1.707-6.827-2.56-11.093l67.413-39.253
		c-1.707-4.267-3.413-7.68-5.12-11.093c0,0,0-0.853-0.853-0.853c-1.707-3.413-3.413-6.827-5.12-10.24c0,0,0-0.853-0.853-0.853
		c-4.267-6.827-8.533-14.507-13.653-20.48l0,0l-67.413,39.253c-1.707-2.56-4.267-4.267-6.827-6.827l39.253-67.413
		c-6.827-5.12-13.653-10.24-21.333-14.507l0,0c-3.413-1.707-6.827-4.267-10.24-5.973c-0.853,0-0.853-0.853-1.707-0.853
		c-3.413,0-6.827-1.707-11.093-3.413l0,0l-39.253,67.413c-4.267-0.853-7.68-2.56-11.947-3.413V60.44l0,0
		c-4.267-0.853-7.68-0.853-11.947-0.853c-0.853,0-0.853,0-1.707,0c-3.413-0.853-7.68-0.853-11.947-0.853
		c-4.267,0-8.533,0-12.8,0.853c-0.853,0-0.853,0-1.707,0c-4.267,0-7.68,0.853-11.947,0.853l0,0v77.653
		c-3.413,0.853-6.827,1.707-11.093,2.56L178.2,73.24c-4.267,1.707-7.68,3.413-11.093,5.12c0,0-0.853,0-0.853,0.853
		c-3.413,1.707-6.827,3.413-10.24,5.12c0,0-0.853,0-0.853,0.853c-6.827,4.267-14.507,8.533-20.48,13.653l39.253,67.413
		c-2.56,1.707-4.267,4.267-6.827,6.827l-67.413-39.253c-5.12,6.827-10.24,13.653-14.507,21.333l0,0
		c-1.707,3.413-4.267,6.827-5.973,10.24c0,0.853-0.853,0.853-0.853,1.707c-0.853,3.413-2.56,6.827-4.267,11.093l67.413,39.253
		c-0.853,4.267-2.56,7.68-3.413,11.947H60.44c-0.853,4.267-0.853,7.68-0.853,11.947c0,0.853,0,0.853,0,1.707
		c-0.853,3.413-0.853,7.68-0.853,11.947c0,4.267,0,8.533,0.853,12.8c0,0.853,0,0.853,0,1.707c0,4.267,0.853,7.68,0.853,11.947
		h77.653c0.853,3.413,1.707,6.827,2.56,11.093L73.24,331.8l0,0c1.707,4.267,3.413,7.68,5.12,11.093c0,0,0,0.853,0.853,0.853
		c1.707,3.413,3.413,6.827,5.12,10.24c0,0,0,0.853,0.853,0.853c4.267,6.827,8.533,14.507,13.653,20.48l0,0l67.413-39.253
		c1.707,2.56,4.267,4.267,6.827,6.827l-39.253,67.413l0,0c6.827,5.12,13.653,10.24,21.333,14.507l0,0
		c3.413,1.707,6.827,4.267,10.24,5.973c0.853,0,0.853,0.853,1.707,0.853c3.413,1.707,6.827,3.413,11.093,5.12l0,0l39.253-67.413
		c4.267,0.853,7.68,2.56,11.947,3.413v77.653l0,0c4.267,0.853,7.68,0.853,11.947,0.853c0.853,0,0.853,0,1.707,0
		c4.267,0,8.533,0.853,12.8,0.853S264.387,452.12,268.653,450.413C267.8,450.413,268.653,450.413,268.653,450.413"/>
	<path style="fill:#FD9808;" d="M255,7.533c-4.267,0-8.533,0-12.8,0C372.76,14.36,476.867,122.733,476.867,255
		S372.76,495.64,242.2,502.467c4.267,0,8.533,0,12.8,0c136.533,0,247.467-110.933,247.467-247.467S391.533,7.533,255,7.533"/>
	<path style="fill:#FFFFFF;" d="M255,7.533c4.267,0,8.533,0,12.8,0C137.24,14.36,33.133,122.733,33.133,255
		S137.24,495.64,267.8,502.467c-4.267,0-8.533,0-12.8,0C118.467,502.467,7.533,391.533,7.533,255S118.467,7.533,255,7.533"/>
	<g>
		<path style="fill:#54C9FD;" d="M280.6,314.733c0,14.507-11.093,25.6-25.6,25.6c-14.507,0-25.6-11.093-25.6-25.6
			c0-14.507,11.093-25.6,25.6-25.6C269.507,289.133,280.6,300.227,280.6,314.733"/>
		<path style="fill:#54C9FD;" d="M340.333,255c0,14.507-11.093,25.6-25.6,25.6c-14.507,0-25.6-11.093-25.6-25.6
			c0-14.507,11.093-25.6,25.6-25.6C329.24,229.4,340.333,240.493,340.333,255"/>
		<path style="fill:#54C9FD;" d="M280.6,195.267c0,14.507-11.093,25.6-25.6,25.6c-14.507,0-25.6-11.093-25.6-25.6
			s11.093-25.6,25.6-25.6C269.507,169.667,280.6,180.76,280.6,195.267"/>
		<path style="fill:#54C9FD;" d="M220.867,255c0,14.507-11.093,25.6-25.6,25.6s-25.6-11.093-25.6-25.6
			c0-14.507,11.093-25.6,25.6-25.6S220.867,240.493,220.867,255"/>
	</g>
	<path d="M255,511C114.2,511-1,395.8-1,255S114.2-1,255-1s256,115.2,256,256S395.8,511,255,511z M255,16.067
		C123.587,16.067,16.067,123.587,16.067,255S123.587,493.933,255,493.933S493.933,386.413,493.933,255S386.413,16.067,255,16.067z"
		/>
	<path d="M255,459.8c-112.64,0-204.8-92.16-204.8-204.8S142.36,50.2,255,50.2S459.8,142.36,459.8,255S367.64,459.8,255,459.8z
		 M255,67.267c-103.253,0-187.733,84.48-187.733,187.733S151.747,442.733,255,442.733S442.733,358.253,442.733,255
		S358.253,67.267,255,67.267z"/>
	<path d="M255,348.867c-18.773,0-34.133-15.36-34.133-34.133c0-18.773,15.36-34.133,34.133-34.133s34.133,15.36,34.133,34.133
		C289.133,333.507,273.773,348.867,255,348.867z M255,297.667c-9.387,0-17.067,7.68-17.067,17.067
		c0,9.387,7.68,17.067,17.067,17.067s17.067-7.68,17.067-17.067C272.067,305.347,264.387,297.667,255,297.667z"/>
	<path d="M314.733,289.133c-18.773,0-34.133-15.36-34.133-34.133s15.36-34.133,34.133-34.133c18.773,0,34.133,15.36,34.133,34.133
		S333.507,289.133,314.733,289.133z M314.733,237.933c-9.387,0-17.067,7.68-17.067,17.067s7.68,17.067,17.067,17.067
		c9.387,0,17.067-7.68,17.067-17.067S324.12,237.933,314.733,237.933z"/>
	<path d="M255,229.4c-18.773,0-34.133-15.36-34.133-34.133s15.36-34.133,34.133-34.133s34.133,15.36,34.133,34.133
		S273.773,229.4,255,229.4z M255,178.2c-9.387,0-17.067,7.68-17.067,17.067s7.68,17.067,17.067,17.067s17.067-7.68,17.067-17.067
		S264.387,178.2,255,178.2z"/>
	<path d="M195.267,289.133c-18.773,0-34.133-15.36-34.133-34.133s15.36-34.133,34.133-34.133S229.4,236.227,229.4,255
		S214.04,289.133,195.267,289.133z M195.267,237.933c-9.387,0-17.067,7.68-17.067,17.067s7.68,17.067,17.067,17.067
		s17.067-7.68,17.067-17.067S204.653,237.933,195.267,237.933z"/>
	<path d="M255,459.8c-8.533,0-17.92-0.853-26.453-1.707c-4.267-0.853-7.68-4.267-7.68-8.533v-69.973l-35.84,59.733
		c-2.56,3.413-6.827,5.12-11.093,3.413c-16.213-6.827-31.573-16.213-46.08-27.307c-3.413-2.56-4.267-7.68-1.707-11.093
		l32.427-55.467l-55.467,32.427c-3.413,1.707-8.533,0.853-11.093-2.56c-11.093-14.507-19.627-29.867-26.453-46.08
		c-1.707-4.267,0-8.533,3.413-10.24L127,288.28H60.44c-4.267,0-7.68-3.413-8.533-7.68c-0.853-7.68-1.707-17.067-1.707-25.6
		s0.853-17.92,1.707-26.453c0.853-4.267,4.267-7.68,8.533-7.68h69.973l-59.733-35.84c-3.413-2.56-5.12-6.827-3.413-11.093
		c6.827-16.213,16.213-31.573,27.307-46.08c2.56-3.413,7.68-4.267,11.093-1.707l55.467,32.427l-32.427-55.467
		c-2.56-3.413-0.853-8.533,2.56-11.093c14.507-11.093,29.867-19.627,46.08-26.453c4.267-1.707,8.533,0,11.093,3.413L222.573,127
		V60.44c0-4.267,3.413-7.68,7.68-8.533c17.92-2.56,34.987-2.56,53.76,0c4.267,0.853,7.68,4.267,7.68,8.533v69.973l35.84-59.733
		c2.56-3.413,6.827-5.12,11.093-3.413c16.213,6.827,31.573,16.213,46.08,27.307c3.413,2.56,4.267,7.68,1.707,11.093l-32.427,55.467
		l52.907-31.573c3.413-2.56,8.533-0.853,11.093,2.56c11.093,14.507,19.627,29.867,26.453,46.08c1.707,4.267,0,8.533-3.413,11.093
		l-55.467,33.28h66.56c4.267,0,5.973,3.413,6.827,7.68c0,7.68,0.853,16.213,0.853,24.747s-0.853,17.92-1.707,26.453
		c-0.853,4.267-4.267,7.68-8.533,7.68h-69.973l59.733,35.84c3.413,2.56,5.12,6.827,3.413,11.093
		c-6.827,16.213-16.213,31.573-27.307,46.08c-2.56,3.413-7.68,4.267-11.093,1.707l-55.467-32.427l32.427,55.467
		c2.56,3.413,0.853,8.533-2.56,11.093c-14.507,11.093-29.867,19.627-46.08,26.453c-4.267,1.707-8.533,0-10.24-3.413L288.28,383
		v67.413c0,4.267-3.413,7.68-7.68,8.533C272.92,458.947,263.533,459.8,255,459.8z M237.933,441.88
		c11.947,0.853,22.187,0.853,34.133,0v-69.973c0-4.267,2.56-7.68,6.827-8.533c3.413-0.853,6.827-1.707,10.24-2.56
		c3.413-0.853,7.68,0,10.24,4.267l34.987,60.587c10.24-5.12,20.48-10.24,29.867-17.067l-34.987-60.587
		c-1.707-3.413-1.707-7.68,1.707-10.24c2.56-1.707,4.267-4.267,5.973-5.973c2.56-2.56,6.827-3.413,10.24-1.707l60.587,35.84
		c6.827-9.387,12.8-18.773,17.067-29.013l-60.587-35.84c-3.413-1.707-5.12-5.973-3.413-10.24c0.853-3.413,2.56-7.68,3.413-11.093
		c0.853-4.267,4.267-6.827,8.533-6.827h69.973c0.853-5.973,0.853-11.947,0.853-17.067s-0.853-11.093-1.707-17.067h-69.12
		c-4.267,0-7.68-2.56-8.533-6.827c-0.853-3.413-1.707-6.827-2.56-10.24c-0.853-3.413,0-7.68,4.267-10.24l58.027-34.133
		c-5.12-10.24-10.24-20.48-17.067-29.867l-58.027,34.133c-3.413,1.707-7.68,1.707-10.24-1.707c-1.707-2.56-4.267-4.267-5.973-5.973
		c-2.56-2.56-3.413-6.827-1.707-10.24l35.84-60.587c-9.387-6.827-18.773-12.8-29.013-17.067l-35.84,60.587
		c-1.707,3.413-5.973,5.12-10.24,3.413c-3.413-0.853-7.68-2.56-11.093-3.413c-4.267-0.853-6.827-4.267-6.827-8.533V68.12
		c-11.947-0.853-22.187-0.853-34.133,0v69.973c0,4.267-2.56,7.68-6.827,8.533c-3.413,0.853-6.827,1.707-10.24,2.56
		c-3.413,0.853-7.68,0-10.24-4.267l-35.84-60.587c-10.24,5.12-20.48,10.24-29.867,17.067l34.987,60.587
		c1.707,3.413,1.707,7.68-1.707,10.24c-2.56,1.707-4.267,4.267-5.973,5.973c-2.56,2.56-6.827,3.413-10.24,1.707l-60.587-35.84
		c-6.827,9.387-12.8,18.773-17.067,29.013l60.587,35.84c3.413,1.707,5.12,5.973,3.413,10.24c-0.853,3.413-2.56,7.68-3.413,11.093
		c-0.853,4.267-4.267,6.827-8.533,6.827H68.12c-0.853,6.827-0.853,12.8-0.853,17.92s0,11.093,0.853,17.067h69.973
		c4.267,0,7.68,2.56,8.533,6.827c0.853,3.413,1.707,6.827,2.56,10.24c0.853,3.413,0,7.68-4.267,10.24l-60.587,34.133
		c5.12,10.24,10.24,20.48,17.067,29.867l60.587-34.987c3.413-1.707,7.68-1.707,10.24,1.707c1.707,2.56,4.267,4.267,5.973,5.973
		c2.56,2.56,3.413,6.827,1.707,10.24l-35.84,60.587c9.387,6.827,18.773,12.8,29.013,17.067l35.84-60.587
		c1.707-3.413,5.973-5.12,10.24-3.413c3.413,0.853,7.68,2.56,11.093,3.413c4.267,0.853,6.827,4.267,6.827,8.533L237.933,441.88
		L237.933,441.88z"/>
</g>
</svg>