<?xml version="1.0" encoding="iso-8859-1"?>
<!-- Uploaded to: SVG Repo, www.svgrepo.com, Generator: SVG Repo Mixer Tools -->
<svg height="800px" width="800px" version="1.1" id="Layer_1" xmlns="http://www.w3.org/2000/svg" xmlns:xlink="http://www.w3.org/1999/xlink" 
	 viewBox="0 0 508 508" xml:space="preserve">
<path style="fill:#56ACE0;" d="M254,28.3C129.5,28.3,28.2,129.5,28.2,254S129.5,479.8,254,479.8S479.8,378.5,479.8,254
	S378.5,28.3,254,28.3z"/>
<path style="fill:#FFC10D;" d="M254,120.8c-73.4,0-133.2,59.7-133.2,133.2S180.6,387.2,254,387.2S387.2,327.5,387.2,254
	S327.4,120.8,254,120.8z"/>
<path style="fill:#FFFFFF;" d="M254,229.1c-13.8,0-24.9,11.2-24.9,24.9c0,13.8,11.2,24.9,24.9,24.9c13.8,0,24.9-11.2,24.9-24.9
	C278.9,240.3,267.8,229.1,254,229.1z"/>
<g>
	<path style="fill:#194F82;" d="M254,0C113.9,0,0,113.9,0,254s113.9,254,254,254s254-113.9,254-254S394.1,0,254,0z M254,479.8
		C129.5,479.8,28.2,378.5,28.2,254S129.5,28.2,254,28.2S479.8,129.5,479.8,254S378.5,479.8,254,479.8z"/>
	<path style="fill:#194F82;" d="M254,92.6C165,92.6,92.6,165,92.6,254S165,415.4,254,415.4S415.4,343,415.4,254S343,92.6,254,92.6z
		 M254,387.2c-73.4,0-133.2-59.7-133.2-133.2S180.6,120.8,254,120.8S387.2,180.6,387.2,254S327.4,387.2,254,387.2z"/>
	<path style="fill:#194F82;" d="M254,200.8c-29.3,0-53.2,23.8-53.2,53.2s23.9,53.2,53.2,53.2s53.2-23.8,53.2-53.2
		S283.3,200.8,254,200.8z M254,278.9c-13.8,0-24.9-11.2-24.9-24.9c0-13.8,11.2-24.9,24.9-24.9c13.8,0,24.9,11.2,24.9,24.9
		C278.9,267.8,267.8,278.9,254,278.9z"/>
	<circle style="fill:#194F82;" cx="254" cy="161.3" r="17.4"/>
	<circle style="fill:#194F82;" cx="254" cy="346.7" r="17.4"/>
	<circle style="fill:#194F82;" cx="346.7" cy="254" r="17.4"/>
	<circle style="fill:#194F82;" cx="161.3" cy="254" r="17.4"/>
	<circle style="fill:#194F82;" cx="319.5" cy="188.5" r="17.4"/>
	<circle style="fill:#194F82;" cx="188.5" cy="319.5" r="17.4"/>
	<circle style="fill:#194F82;" cx="319.5" cy="319.5" r="17.4"/>
	<circle style="fill:#194F82;" cx="188.5" cy="188.5" r="17.4"/>
</g>
</svg>