<!DOCTYPE svg PUBLIC "-//W3C//DTD SVG 1.1//EN" "http://www.w3.org/Graphics/SVG/1.1/DTD/svg11.dtd">
<!-- Uploaded to: SVG Repo, www.svgrepo.com, Transformed by: SVG Repo Mixer Tools -->
<svg fill="#ffffff" height="800px" width="800px" version="1.1" id="Layer_1" xmlns="http://www.w3.org/2000/svg" xmlns:xlink="http://www.w3.org/1999/xlink" viewBox="0 0 512 512" xml:space="preserve" stroke="#ffffff">
<g id="SVGRepo_bgCarrier" stroke-width="0"/>
<g id="SVGRepo_tracerCarrier" stroke-linecap="round" stroke-linejoin="round"/>
<g id="SVGRepo_iconCarrier"> <g> <g> <path d="M495.091,26.595h-57.86c-8.153,0-15.146,5.818-16.628,13.835c-53.186,287.677-46.144,249.338-48.654,263.612h-18.524 l26.777-147.03c1.889-10.363-6.081-19.94-16.636-19.94H16.914c-10.556,0-18.523,9.576-16.637,19.94l26.776,147.03h-3.241 c-9.339,0-16.909,7.571-16.909,16.909c0,9.339,7.571,16.909,16.909,16.909h23.509h285.838h32.844l-6.39,36.342H72.516 c-9.339,0-16.909,7.571-16.909,16.909c0,9.339,7.571,16.909,16.909,16.909h14.32c-3.915,7.364-6.143,15.755-6.143,24.661 c0,29.071,23.65,52.721,52.722,52.721c29.072,0,52.721-23.65,52.721-52.721c0-8.906-2.228-17.297-6.143-24.661h86.597 c-3.915,7.364-6.143,15.755-6.143,24.661c0,29.071,23.65,52.721,52.72,52.721c29.071,0,52.721-23.65,52.721-52.721 c0-8.906-2.228-17.297-6.143-24.661h14.062c8.209,0,15.233-5.896,16.654-13.981c20.634-117.355,7.515-45.208,60.838-333.628h43.79 c9.339,0,16.91-7.571,16.91-16.909S504.429,26.595,495.091,26.595z M319.051,304.043H61.429l-24.248-133.15H343.3L319.051,304.043 z M133.415,451.586c-10.423,0-18.903-8.478-18.903-18.903s8.478-18.903,18.903-18.903c10.424,0,18.903,8.478,18.903,18.903 S143.838,451.586,133.415,451.586z M313.168,451.586c-10.422,0-18.901-8.478-18.901-18.903s8.478-18.903,18.901-18.903 c10.423,0,18.903,8.478,18.903,18.903S323.591,451.586,313.168,451.586z"/> </g> </g> </g>
</svg>