<!DOCTYPE svg PUBLIC "-//W3C//DTD SVG 1.1//EN" "http://www.w3.org/Graphics/SVG/1.1/DTD/svg11.dtd">
<!-- Uploaded to: SVG Repo, www.svgrepo.com, Transformed by: SVG Repo Mixer Tools -->
<svg fill="#ffffff" height="800px" width="800px" version="1.1" id="Layer_1" xmlns="http://www.w3.org/2000/svg" xmlns:xlink="http://www.w3.org/1999/xlink" viewBox="0 0 512.001 512.001" xml:space="preserve" stroke="#ffffff">
<g id="SVGRepo_bgCarrier" stroke-width="0"/>
<g id="SVGRepo_tracerCarrier" stroke-linecap="round" stroke-linejoin="round"/>
<g id="SVGRepo_iconCarrier"> <g> <g> <path d="M469.333,32c-20.629,0-37.845,14.656-41.792,34.112l-25.685,8.555H53.739c-16.917,0-32.512,7.659-42.731,20.992 C0.853,108.907-2.496,125.803,1.92,142.208l41.472,148.587c6.315,23.403,27.648,39.744,51.84,39.744l267.413,0.128h0.021 c17.643,0,32,14.357,32,32s-14.357,32-32,32h-3.925C349.909,369.899,326.443,352,298.667,352s-51.243,17.899-60.075,42.667 h-71.851C157.909,369.899,134.443,352,106.667,352s-51.243,17.899-60.075,42.667H21.333C9.536,394.667,0,404.224,0,416 s9.536,21.333,21.333,21.333h25.259C55.424,462.102,78.891,480,106.667,480s51.243-17.899,60.075-42.667h71.851 C247.424,462.102,270.891,480,298.667,480s51.243-17.899,60.075-42.667h3.925c41.173,0,74.667-33.493,74.667-74.667 c0-32.32-20.779-59.648-49.579-70.016L423.83,112.32l17.387-5.781c7.531,6.635,17.301,10.795,28.117,10.795 c23.552,0,42.667-19.093,42.667-42.667C512,51.094,492.885,32,469.333,32z"/> </g> </g> </g>
</svg>